<svg xmlns="http://www.w3.org/2000/svg" width="32" height="32" viewBox="0 0 32 32" fill="none"><metadata><rdf:RDF xmlns:rdf="http://www.w3.org/1999/02/22-rdf-syntax-ns#" xmlns:dc="http://purl.org/dc/elements/1.1/"><rdf:Description><dc:creator>RealFaviconGenerator</dc:creator><dc:source>https://realfavicongenerator.net</dc:source></rdf:Description></rdf:RDF></metadata><path fill-rule="evenodd" clip-rule="evenodd" d="M0 6.49888C0.08 2.09553 3.68 0.0139536 6.32 0.0139536H24.72C29.44 -0.226227 32 2.65596 32 6.97924V25.153C32 28.9724 29.576 31.6462 25.84 32H6.72C2.56 32 0.16 28.9159 0 25.6334V6.49888ZM20.9205 13.9074H18.4405C18.5205 11.9059 17.5605 11.1853 15.8805 11.1853C13.4005 11.1053 13.0805 13.427 14.6005 14.1476C16.3605 15.0282 17.6405 14.5479 19.9398 16.1034C22.7605 18.2307 21.0805 23.8349 14.8405 22.8742C11.9605 22.1536 10.8405 20.6325 10.88 17.7503H13.4005C12.7605 21.7533 18.9205 21.353 18.7605 18.7911C18.6005 17.1098 15.9209 17.175 13.4005 16.2291C12.5595 15.8428 11.9454 15.2641 11.5813 14.6279C10.2005 11.7457 12.2805 8.86355 15.9605 8.96681C19.0805 9.05435 21.0005 10.6249 20.9205 13.9074Z" fill="#507BAF"></path><path d="M18.4405 13.9074H20.9205C21.0005 10.6249 19.0805 9.05435 15.9605 8.96681C12.2805 8.86355 10.2005 11.7457 11.5813 14.6279C11.9454 15.2641 12.5595 15.8428 13.4005 16.2291C15.9209 17.175 18.6005 17.1098 18.7605 18.7911C18.9205 21.353 12.7605 21.7533 13.4005 17.7503H10.88C10.8405 20.6325 11.9605 22.1536 14.8405 22.8742C21.0805 23.8349 22.7605 18.2307 19.9398 16.1034C17.6405 14.5479 16.3605 15.0282 14.6005 14.1476C13.0805 13.427 13.4005 11.1053 15.8805 11.1853C17.5605 11.1853 18.5205 11.9059 18.4405 13.9074Z" fill="white"></path></svg>