<svg width="415" height="111" viewBox="0 0 415 111" fill="none" xmlns="http://www.w3.org/2000/svg">
<path d="M47.1215 31.6285H62.5045C62.5045 13.1285 55.0045 -0.871348 26.0045 1.12863C1.38026 2.82684 -8.89241 32.7023 15.5746 45.6285C23.5045 49.818 40.9499 51.9868 46.5045 56.1285C51.0045 59.484 49.5045 67.1285 44.0045 71.6285C35.0045 78.1285 12.0045 73.1285 15.5045 55.6285H0.00445437C-0.137387 71.2174 3.06685 77.6043 15.5746 84.1285C24.0044 88.5256 44.5044 89.6285 56.0044 80.6285C67.5044 71.6285 68.5044 51.1285 54.0044 43.1285C46.5044 38.9906 37.0044 37.1285 33.0044 36.1285C21.0044 33.1285 17.054 30.1922 17.5044 23.1285C18.0044 19.1285 21.2658 15.8783 27.0044 14.6285C39.0044 12.6285 48.0044 16.1285 47.1215 31.6285Z" fill="white"/>
<path d="M72.5044 10.1285C72.5044 -3.87153 93.0044 -2.87156 92.0044 10.1285C91.5044 22.6285 72.5044 22.6285 72.5044 10.1285Z" fill="white"/>
<path d="M75.0044 27.1284H89.5044V86.1284H75.0044V27.1284Z" fill="white"/>
<path d="M113.885 8.12844H129.004V26.6284H145.004V39.1284H129.004V68.1284C129.004 72.6284 130.004 73.6284 133.504 73.6284H144.004V86.1284H124.504C118.504 86.1284 114.004 79.1284 114.004 71.6285V39.1284H99.0044V26.6284H113.504H113.885V8.12844Z" fill="white"/>
<path fill-rule="evenodd" clip-rule="evenodd" d="M167.004 60.6284H210.004C213.874 38.7931 197.117 24.2917 180.595 24.9791C157.686 25.9322 146.004 46.6284 154.504 71.1284C160.749 89.1284 197.004 97.1284 208.504 72.1284C207.304 71.3284 199.671 67.4618 196.004 65.6284C192.504 78.6284 167.004 77.1284 167.004 60.6284ZM180.504 38.1284C173.004 38.1284 167.504 44.6284 167.004 49.6284H195.004C193.316 42.4451 189.004 38.1284 180.504 38.1284Z" fill="white"/>
<path d="M221.004 2.12851H236.504V36.8785V71.6285H275.004V86.1284H221.004V2.12851Z" fill="white"/>
<path fill-rule="evenodd" clip-rule="evenodd" d="M281.004 57.6284C280.406 40.0564 293.004 24.6284 312.004 24.9791C333.504 25.3759 343.001 38.4721 343.504 55.6284C344.022 73.2961 329.679 88.274 312.004 88.1284C295.022 87.9886 281.582 74.6019 281.004 57.6284ZM312.004 38.6284C301.504 38.6284 295.609 47.9361 296.004 57.6284C296.382 66.8808 302.747 74.4148 312.004 74.6284C322.004 74.8591 329.184 65.5808 328.504 55.6284C327.874 46.3981 322.516 38.6284 312.004 38.6284Z" fill="white"/>
<path fill-rule="evenodd" clip-rule="evenodd" d="M400.004 33.6284H397.504C391.611 26.4943 385.14 24.1707 378.57 24.6284C367.504 25.1284 360.037 31.0385 355.004 40.6284C348.969 52.1284 351.004 74.6284 364.504 82.1284C372.135 86.3676 380.504 87.6284 390.504 84.1284C394.004 82.9034 397.504 79.6284 397.504 77.6284H400.004V93.6284C400.004 96.1284 398.504 97.1284 396.004 97.1284H362.004V110.128H402.504C409.004 110.128 415.004 104.628 415.004 97.1284C414.939 98.3284 414.977 50.6284 415.004 26.6284H400.004V33.6284ZM383.004 38.1284C372.004 38.1284 366.254 48.6284 367.504 58.6284C368.504 66.6284 374.724 72.7619 383.004 73.1284C392.523 73.5497 400.004 65.6284 400.004 55.6284C400.004 45.6284 393.004 38.1284 383.004 38.1284Z" fill="white"/>
</svg>
